<?xml version="1.0" encoding="UTF-8"?>
<svg version="1.1" xmlns="http://www.w3.org/2000/svg" width="148" height="50">
<path d="M0 0 C4.17239687 1.72338131 6.46956638 4.2947222 9 8 C11.09795355 13.0700544 10.41881637 18.67742198 8.8125 23.75 C6.56810494 27.77443253 4.09435378 29.95282311 0 32 C-4.21019538 32.43011819 -7.88692855 32.4699635 -11.8125 30.8125 C-15.2596633 27.95627898 -17.57791895 25.26624316 -19 21 C-19.57771254 14.64516202 -19.31198266 9.5199711 -16 4 C-11.17335686 -0.59119714 -6.34403765 -0.87137536 0 0 Z M-12 7 C-14.42474194 11.04123656 -14.59615022 15.40778032 -14 20 C-12.2529506 24.13774857 -10.15346708 26.26133936 -6 28 C-2.29569406 28 -0.56874835 27.43404479 2.375 25.1875 C4.90346204 20.22782446 4.73160793 15.45311889 4 10 C2.68944108 6.71095979 2.68944108 6.71095979 0 5 C-5.00418972 3.54423572 -7.98177226 3.5558048 -12 7 Z " fill="#000000" transform="translate(121,8)"/>
<path d="M0 0 C4.17239687 1.72338131 6.46956638 4.2947222 9 8 C11.09795355 13.0700544 10.41881637 18.67742198 8.8125 23.75 C6.56810494 27.77443253 4.09435378 29.95282311 0 32 C-4.21019538 32.43011819 -7.88692855 32.4699635 -11.8125 30.8125 C-15.2596633 27.95627898 -17.57791895 25.26624316 -19 21 C-19.57771254 14.64516202 -19.31198266 9.5199711 -16 4 C-11.17335686 -0.59119714 -6.34403765 -0.87137536 0 0 Z M-12 7 C-14.42474194 11.04123656 -14.59615022 15.40778032 -14 20 C-12.2529506 24.13774857 -10.15346708 26.26133936 -6 28 C-2.29569406 28 -0.56874835 27.43404479 2.375 25.1875 C4.90346204 20.22782446 4.73160793 15.45311889 4 10 C2.68944108 6.71095979 2.68944108 6.71095979 0 5 C-5.00418972 3.54423572 -7.98177226 3.5558048 -12 7 Z " fill="#000000" transform="translate(56,8)"/>
<path d="M0 0 C0 1.98 0 3.96 0 6 C-1.010625 5.505 -2.02125 5.01 -3.0625 4.5 C-6.8528542 2.89962823 -9.85980829 2.46330848 -14 3 C-17.38939556 5.13679285 -18.72582557 6.1774767 -20 10 C-20.34222737 15.30452423 -20.52076609 18.72478403 -17 23 C-13.98763958 24.86974095 -11.76792872 25.22846849 -8.25 25.125 C-7.05117187 25.09792969 -7.05117187 25.09792969 -5.828125 25.0703125 C-5.22484375 25.04710938 -4.6215625 25.02390625 -4 25 C-4 22.36 -4 19.72 -4 17 C-5.98 17 -7.96 17 -10 17 C-10 15.68 -10 14.36 -10 13 C-6.37 13 -2.74 13 1 13 C1 17.62 1 22.24 1 27 C-5.18288686 30.09144343 -8.37093353 30.79894286 -15 30 C-19.20984062 28.44079977 -22.15195407 26.48094503 -25 23 C-26.74323909 17.65406679 -27.00955331 11.20172621 -25.31640625 5.83203125 C-23.81409967 2.90845538 -22.04402781 1.03328932 -19.4375 -0.9375 C-12.79286591 -2.99129599 -6.35109931 -2.88268703 0 0 Z " fill="#000000" transform="translate(96,10)"/>
<path d="M0 0 C1.65 0 3.3 0 5 0 C5 8.91 5 17.82 5 27 C9.62 27 14.24 27 19 27 C19 28.32 19 29.64 19 31 C12.73 31 6.46 31 0 31 C0 20.77 0 10.54 0 0 Z " fill="#000000" transform="translate(17,8)"/>
</svg>
